<mxfile host="app.diagrams.net" modified="2023-04-17T19:52:58.406Z" agent="Mozilla/5.0 (Windows NT 10.0; Win64; x64) AppleWebKit/537.36 (KHTML, like Gecko) Chrome/111.0.0.0 Safari/537.36" etag="3kQqiJFmv0GlEDpez-z6" version="21.1.8" type="device">
  <diagram name="Page-1" id="03018318-947c-dd8e-b7a3-06fadd420f32">
    <mxGraphModel dx="1588" dy="860" grid="1" gridSize="10" guides="1" tooltips="1" connect="1" arrows="1" fold="1" page="1" pageScale="1" pageWidth="1100" pageHeight="850" background="#ffffff" math="0" shadow="0">
      <root>
        <mxCell id="0" />
        <mxCell id="1" parent="0" />
        <mxCell id="677b7b8949515195-1" value="" style="whiteSpace=wrap;html=1;rounded=0;shadow=0;labelBackgroundColor=none;strokeColor=#000000;strokeWidth=1;fillColor=none;fontFamily=Verdana;fontSize=12;fontColor=#000000;align=center;comic=1;" parent="1" vertex="1">
          <mxGeometry x="40" y="14" width="1040" height="1066" as="geometry" />
        </mxCell>
        <mxCell id="677b7b8949515195-2" value="LOGO" style="whiteSpace=wrap;html=1;rounded=0;shadow=0;labelBackgroundColor=none;strokeWidth=1;fontFamily=Verdana;fontSize=28;align=center;comic=1;" parent="1" vertex="1">
          <mxGeometry x="60" y="25" width="165" height="40" as="geometry" />
        </mxCell>
        <mxCell id="677b7b8949515195-9" value="" style="line;strokeWidth=1;html=1;rounded=0;shadow=0;labelBackgroundColor=none;fillColor=none;fontFamily=Verdana;fontSize=14;fontColor=#000000;align=center;comic=1;" parent="1" vertex="1">
          <mxGeometry x="20" y="20" width="1060" height="130" as="geometry" />
        </mxCell>
        <mxCell id="677b7b8949515195-11" value="OBCHOD" style="text;html=1;points=[];align=left;verticalAlign=top;spacingTop=-4;fontSize=14;fontFamily=Verdana" parent="1" vertex="1">
          <mxGeometry x="270" y="35" width="60" height="20" as="geometry" />
        </mxCell>
        <mxCell id="677b7b8949515195-12" value="MAC" style="text;html=1;points=[];align=left;verticalAlign=top;spacingTop=-4;fontSize=14;fontFamily=Verdana" parent="1" vertex="1">
          <mxGeometry x="400" y="35" width="60" height="20" as="geometry" />
        </mxCell>
        <mxCell id="677b7b8949515195-13" value="IPHONE" style="text;html=1;points=[];align=left;verticalAlign=top;spacingTop=-4;fontSize=14;fontFamily=Verdana" parent="1" vertex="1">
          <mxGeometry x="550" y="35" width="60" height="20" as="geometry" />
        </mxCell>
        <mxCell id="677b7b8949515195-14" value="IPAD" style="text;html=1;points=[];align=left;verticalAlign=top;spacingTop=-4;fontSize=14;fontFamily=Verdana" parent="1" vertex="1">
          <mxGeometry x="720" y="35" width="60" height="20" as="geometry" />
        </mxCell>
        <mxCell id="677b7b8949515195-16" value="" style="verticalLabelPosition=bottom;shadow=0;dashed=0;align=center;html=1;verticalAlign=top;strokeWidth=1;shape=mxgraph.mockup.graphics.simpleIcon;strokeColor=#999999;rounded=0;labelBackgroundColor=none;fontFamily=Verdana;fontSize=14;fontColor=#000000;comic=1;" parent="1" vertex="1">
          <mxGeometry x="160" y="139" width="800" height="201" as="geometry" />
        </mxCell>
        <mxCell id="MvcRWlXZlkQ6GtOZWl9U-1" value="&lt;b&gt;&lt;font style=&quot;font-size: 24px;&quot;&gt;Přihlásit se&lt;/font&gt;&lt;/b&gt;" style="rounded=0;whiteSpace=wrap;html=1;" parent="1" vertex="1">
          <mxGeometry x="890" y="35" width="150" height="40" as="geometry" />
        </mxCell>
        <mxCell id="MvcRWlXZlkQ6GtOZWl9U-5" value="" style="verticalLabelPosition=bottom;shadow=0;dashed=0;align=center;html=1;verticalAlign=top;strokeWidth=1;shape=mxgraph.mockup.graphics.simpleIcon;strokeColor=#999999;rounded=0;labelBackgroundColor=none;fontFamily=Verdana;fontSize=14;fontColor=#000000;comic=1;" parent="1" vertex="1">
          <mxGeometry x="120" y="400" width="220" height="201" as="geometry" />
        </mxCell>
        <mxCell id="MvcRWlXZlkQ6GtOZWl9U-6" value="" style="verticalLabelPosition=bottom;shadow=0;dashed=0;align=center;html=1;verticalAlign=top;strokeWidth=1;shape=mxgraph.mockup.graphics.simpleIcon;strokeColor=#999999;rounded=0;labelBackgroundColor=none;fontFamily=Verdana;fontSize=14;fontColor=#000000;comic=1;" parent="1" vertex="1">
          <mxGeometry x="450" y="400" width="220" height="201" as="geometry" />
        </mxCell>
        <mxCell id="MvcRWlXZlkQ6GtOZWl9U-8" value="" style="verticalLabelPosition=bottom;shadow=0;dashed=0;align=center;html=1;verticalAlign=top;strokeWidth=1;shape=mxgraph.mockup.graphics.simpleIcon;strokeColor=#999999;rounded=0;labelBackgroundColor=none;fontFamily=Verdana;fontSize=14;fontColor=#000000;comic=1;" parent="1" vertex="1">
          <mxGeometry x="780" y="400" width="220" height="201" as="geometry" />
        </mxCell>
        <mxCell id="MvcRWlXZlkQ6GtOZWl9U-10" value="" style="rounded=0;whiteSpace=wrap;html=1;" parent="1" vertex="1">
          <mxGeometry x="140" y="415.5" width="180" height="170" as="geometry" />
        </mxCell>
        <mxCell id="MvcRWlXZlkQ6GtOZWl9U-11" value="KOUPIT" style="rounded=0;whiteSpace=wrap;html=1;" parent="1" vertex="1">
          <mxGeometry x="170" y="530" width="120" height="40" as="geometry" />
        </mxCell>
        <mxCell id="MvcRWlXZlkQ6GtOZWl9U-16" value="" style="rounded=0;whiteSpace=wrap;html=1;" parent="1" vertex="1">
          <mxGeometry x="470" y="415.5" width="180" height="170" as="geometry" />
        </mxCell>
        <mxCell id="MvcRWlXZlkQ6GtOZWl9U-17" value="" style="rounded=0;whiteSpace=wrap;html=1;" parent="1" vertex="1">
          <mxGeometry x="800" y="415.5" width="180" height="170" as="geometry" />
        </mxCell>
        <mxCell id="MvcRWlXZlkQ6GtOZWl9U-18" value="KOUPIT" style="rounded=0;whiteSpace=wrap;html=1;" parent="1" vertex="1">
          <mxGeometry x="500" y="530" width="120" height="40" as="geometry" />
        </mxCell>
        <mxCell id="MvcRWlXZlkQ6GtOZWl9U-19" value="KOUPIT" style="rounded=0;whiteSpace=wrap;html=1;" parent="1" vertex="1">
          <mxGeometry x="830" y="530" width="120" height="40" as="geometry" />
        </mxCell>
        <mxCell id="MvcRWlXZlkQ6GtOZWl9U-20" value="TEXT" style="rounded=0;whiteSpace=wrap;html=1;" parent="1" vertex="1">
          <mxGeometry x="190" y="170" width="740" height="80" as="geometry" />
        </mxCell>
        <mxCell id="MvcRWlXZlkQ6GtOZWl9U-21" value="NOVINKY" style="rounded=0;whiteSpace=wrap;html=1;" parent="1" vertex="1">
          <mxGeometry x="500" y="270" width="120" height="50" as="geometry" />
        </mxCell>
        <mxCell id="PmDR5wTl7UvxtLqr42k4-1" value="TEXT" style="whiteSpace=wrap;html=1;aspect=fixed;" vertex="1" parent="1">
          <mxGeometry x="160" y="640" width="370" height="370" as="geometry" />
        </mxCell>
        <mxCell id="PmDR5wTl7UvxtLqr42k4-3" value="CAROUSEL" style="rounded=1;whiteSpace=wrap;html=1;" vertex="1" parent="1">
          <mxGeometry x="620" y="705" width="360" height="240" as="geometry" />
        </mxCell>
        <mxCell id="PmDR5wTl7UvxtLqr42k4-4" value="" style="shape=singleArrow;whiteSpace=wrap;html=1;" vertex="1" parent="1">
          <mxGeometry x="930" y="815" width="40" height="20" as="geometry" />
        </mxCell>
        <mxCell id="PmDR5wTl7UvxtLqr42k4-5" value="" style="shape=singleArrow;direction=west;whiteSpace=wrap;html=1;" vertex="1" parent="1">
          <mxGeometry x="630" y="810" width="40" height="18.75" as="geometry" />
        </mxCell>
      </root>
    </mxGraphModel>
  </diagram>
</mxfile>
